<?xml version="1.0" encoding="UTF-8" standalone="no"?>
<!-- Created with Inkscape (http://www.inkscape.org/) -->

<svg
   xmlns:dc="http://purl.org/dc/elements/1.1/"
   xmlns:cc="http://creativecommons.org/ns#"
   xmlns:rdf="http://www.w3.org/1999/02/22-rdf-syntax-ns#"
   xmlns:svg="http://www.w3.org/2000/svg"
   xmlns="http://www.w3.org/2000/svg"
   xmlns:sodipodi="http://sodipodi.sourceforge.net/DTD/sodipodi-0.dtd"
   xmlns:inkscape="http://www.inkscape.org/namespaces/inkscape"
   width="1024"
   height="500"
   viewBox="0 0 1024 499.99998"
   id="svg4760"
   version="1.1"
   inkscape:version="0.91 r13725"
   sodipodi:docname="splash.svg"
   inkscape:export-filename="C:\Users\Luka\workspaces\python-workspace\PMSensor\mobile\resources\splash.png"
   inkscape:export-xdpi="90"
   inkscape:export-ydpi="90">
  <defs
     id="defs4762">
    <linearGradient
       id="a"
       x2="0"
       y1="502.20001"
       y2="81.390999"
       gradientUnits="userSpaceOnUse"
       gradientTransform="translate(-51.5625,8.1455078)">
      <stop
         stop-color="#ffc01f"
         offset="0"
         id="stop7" />
      <stop
         stop-color="#f90"
         offset=".1067"
         id="stop9" />
      <stop
         stop-color="#ffc01f"
         offset=".2022"
         id="stop11" />
      <stop
         stop-color="#f90"
         offset=".309"
         id="stop13" />
      <stop
         stop-color="#ffc01f"
         offset=".5506"
         id="stop15" />
      <stop
         stop-color="#f90"
         offset=".6742"
         id="stop17" />
      <stop
         stop-color="#ffc01f"
         offset=".9157"
         id="stop19" />
      <stop
         offset="1"
         id="stop21" />
    </linearGradient>
  </defs>
  <sodipodi:namedview
     id="base"
     pagecolor="#ffffff"
     bordercolor="#666666"
     borderopacity="1.0"
     inkscape:pageopacity="0.0"
     inkscape:pageshadow="2"
     inkscape:zoom="0.25"
     inkscape:cx="727.66667"
     inkscape:cy="420.07378"
     inkscape:document-units="px"
     inkscape:current-layer="layer1"
     showgrid="false"
     units="px"
     inkscape:window-width="1280"
     inkscape:window-height="657"
     inkscape:window-x="-8"
     inkscape:window-y="-8"
     inkscape:window-maximized="1" />
  <metadata
     id="metadata4765">
    <rdf:RDF>
      <cc:Work
         rdf:about="">
        <dc:format>image/svg+xml</dc:format>
        <dc:type
           rdf:resource="http://purl.org/dc/dcmitype/StillImage" />
        <dc:title></dc:title>
      </cc:Work>
    </rdf:RDF>
  </metadata>
  <g
     inkscape:label="Layer 1"
     inkscape:groupmode="layer"
     id="layer1"
     transform="translate(0,-552.36224)">
    <rect
       style="fill:#ffff99;fill-opacity:1;stroke:none;stroke-width:0.76551604;stroke-miterlimit:4;stroke-dasharray:none;stroke-dashoffset:38.5718956;stroke-opacity:1"
       id="rect5722"
       width="1024"
       height="500"
       x="0"
       y="552.36218"
       inkscape:export-xdpi="90"
       inkscape:export-ydpi="90" />
    <g
       id="g4636"
       transform="matrix(0.56454442,0,0,0.56454442,345.6597,545.30816)">
      <g
         transform="matrix(1.1229503,0,0,1.1229503,-26.416768,-29.553875)"
         id="g4513">
        <path
           d="m 166.2475,358.85551 c -26.247,1.141 -43.366,5.705 -66.188,17.117 -19.4,9.129 -46.79,7.988 -58.202,27.389 -11.412,17.119 0,38.802 4.565,55.917 7.989,33.097 29.671,44.509 61.624,53.639 92.438,29.671 209.98,50.212 301.27,10.271 25.108,-11.412 47.931,-23.964 71.895,-34.238 20.541,-10.271 42.227,-21.682 50.212,-43.364 11.412,-29.671 -6.844,-74.176 -34.233,-90.154 -36.52,-22.822 -60.483,6.849 -92.438,18.26 -36.518,14.836 -85.587,13.693 -124.39,12.553 -36.519,0 -82.167,-9.128 -116.4,-23.964"
           id="path23"
           inkscape:connector-curvature="0"
           style="fill:#666666" />
        <path
           d="m 241.5675,479.81551 c -38.801,6.849 -95.86,-2.281 -123.25,-35.375 -38.801,-46.79 15.974,-79.884 59.34,-79.884 -35.377,-10.271 -15.977,-62.765 5.708,-78.743 14.833,-10.271 29.669,-2.281 44.505,-9.128 22.825,-10.271 -2.282,-19.4 -7.987,-34.236 -13.695,-35.377 27.388,-55.918 49.07,-73.037 13.695,-10.271 25.106,-22.823 36.519,-35.377 12.553,-15.977 13.695,-27.388 20.542,-44.505 1.141,18.258 -1.141,38.799 3.422,57.059 5.708,25.106 26.249,30.812 45.649,44.507 20.541,13.693 29.669,25.104 34.234,50.212 6.849,29.669 -9.13,29.669 -30.812,41.083 22.824,-9.13 66.187,2.282 78.742,25.106 19.4,33.094 -15.979,49.071 -36.52,66.188 22.823,-10.271 77.603,-9.13 69.613,23.964 -5.704,21.682 -23.964,62.765 -44.505,73.039 -15.979,7.985 -36.52,10.271 -54.777,15.975 -22.825,6.848 -45.649,17.119 -69.613,21.682 -31.954,5.708 -54.777,0 -75.318,-26.245"
           id="path25"
           inkscape:connector-curvature="0"
           style="fill:url(#a)" />
        <path
           d="m 241.2675,478.14351 c -42.036,7.21 -96.088,-2.014 -123.695,-37.361 -6.724,-8.61 -11.493,-19.146 -10.637,-30.249 0.74,-9.592 6.451,-17.873 13.366,-24.184 15.016,-13.704 37.222,-19.953 57.194,-20.093 1.807,-0.012 2.727,-2.685 0.752,-3.293 -19.942,-6.138 -20.782,-26.818 -15.206,-43.861 2.835,-8.666 7.36,-16.81 13.078,-23.898 2.441,-3.026 5.245,-5.745 8.346,-8.087 6.886,-5.202 15.95,-5.387 24.168,-5.498 9.718,-0.131 23.147,-1.226 29.196,-10.17 4.061,-6.003 -2.984,-12.688 -6.718,-16.642 -7.628,-8.078 -12.688,-16.404 -12.213,-27.945 0.423,-10.279 6.499,-19.255 13.353,-26.475 15.223,-16.033 35.541,-26.392 51.705,-41.446 10.791,-10.049 22.131,-21.118 29.688,-33.862 6.432,-10.848 9.377,-23.305 13.966,-34.954 l -3.274,-0.295 c 0.742,13.126 0.034,26.284 0.836,39.411 0.68,11.127 2.509,23.292 8.87,32.739 5.16,7.664 12.4,13.121 20.128,18.002 9.081,5.736 18.335,11.063 26.982,17.469 7.601,5.631 14.25,12.318 18.859,20.631 5.144,9.274 7.566,20.361 8.931,30.792 1.11,8.491 -1.003,15.65 -8.151,20.602 -6.968,4.827 -15.52,7.484 -23.015,11.379 -1.966,1.021 -0.575,3.858 1.461,3.077 13.222,-5.067 28.624,-3.239 41.9,0.629 13.297,3.874 27.474,11.26 34.573,23.669 3.862,6.753 6.276,13.966 5.085,21.793 -1.018,6.695 -5.313,12.552 -9.845,17.347 -9.2,9.733 -21.046,16.545 -31.323,25.02 -1.521,1.254 0.086,3.603 1.832,2.837 14.953,-6.555 34.118,-7.498 49.76,-3.061 7.099,2.014 14.114,5.888 17.094,12.967 3.437,8.167 -1.25,18.244 -4.061,25.913 -4.055,11.065 -9.12,21.801 -15.155,31.922 -5.446,9.134 -11.999,18.193 -20.814,24.337 -11.067,7.714 -26.449,9.913 -39.313,12.913 -13.938,3.25 -27.447,7.598 -40.935,12.357 -22.65,7.994 -46.03,16.817 -70.436,16.024 -20.878,-0.678 -37.46,-11.586 -50.173,-27.599 -1.366,-1.721 -3.963,0.483 -2.598,2.203 13.711,17.271 31.428,28.104 53.766,28.83 27.518,0.894 53.99,-10.588 79.491,-19.383 14.194,-4.896 28.612,-8.282 43.171,-11.846 10.997,-2.692 22.783,-5.76 31.853,-12.841 16.586,-12.951 26.597,-35.406 33.893,-54.547 3.261,-8.554 7.534,-18.532 5.045,-27.799 -2.089,-7.774 -8.989,-12.629 -16.104,-15.454 -16.811,-6.675 -39.525,-5.214 -55.945,1.985 l 1.832,2.837 c 11.56,-9.532 24.887,-17.104 34.613,-28.702 10.433,-12.44 9.588,-26.853 1.817,-40.436 -7.352,-12.851 -22.33,-20.306 -35.942,-24.483 -14.087,-4.323 -30.528,-5.883 -44.543,-0.512 0.486,1.026 0.975,2.051 1.461,3.077 12.265,-6.374 30.26,-10.301 33.07,-26.081 1.688,-9.481 -1.578,-20.87 -4.471,-29.819 -2.912,-9.013 -7.41,-17.029 -13.91,-23.94 -14.817,-15.755 -36.437,-22.457 -51.689,-37.43 -9.352,-9.18 -12.156,-21.809 -13.425,-34.417 -1.437,-14.278 -0.313,-28.694 -1.123,-43.007 -0.101,-1.787 -2.702,-1.746 -3.274,-0.295 -4.696,11.923 -7.786,24.444 -14.369,35.546 -7.68,12.952 -19.91,24.213 -30.963,34.319 -15.727,14.378 -35.125,24.332 -49.851,39.841 -12.199,12.849 -19.256,32.583 -8.663,48.815 2.48,3.8 5.592,7.053 8.697,10.34 2.44,2.584 7.129,6.679 6.189,10.697 -1.284,5.488 -11.379,8.066 -15.83,8.947 -6.757,1.337 -13.822,0.597 -20.664,1.166 -21.773,1.81 -35.073,24.382 -40.369,43.449 -4.989,17.963 -1.282,38.012 18.472,44.093 l 0.752,-3.293 c -32.111,0.224 -85.106,21.063 -72.548,62.217 6.318,20.705 25.434,35.692 44.194,44.665 20.536,9.822 43.95,13.84 66.584,13.896 8.642,0.021 17.295,-0.687 25.813,-2.147 2.166,-0.366 1.574,-3.72 -0.591,-3.348 z"
           id="path27"
           inkscape:connector-curvature="0" />
        <path
           d="m 236.0175,267.81551 c 23.287,13.888 48.904,25.095 76.591,20.823 23.936,-3.693 47.254,-23.182 72.148,-12.634 2.028,0.86 3.195,-2.341 1.182,-3.194 -22.351,-9.471 -46.176,4.309 -67.358,10.776 -28.107,8.581 -56.798,-4.36 -80.609,-18.562 -1.876,-1.117 -3.843,1.664 -1.954,2.791 z"
           id="path29"
           inkscape:connector-curvature="0" />
        <path
           d="m 181.6275,365.01551 c 35.43,17.025 74.948,26.448 114.35,24.1 21.718,-1.294 43.901,-4.424 65.221,-8.717 19.991,-4.025 40.612,-15.71 61.215,-8.534 2.076,0.723 3.256,-2.473 1.182,-3.195 -18.346,-6.39 -36.451,1.31 -54.1,6.34 -21.126,6.022 -43.754,7.387 -65.476,9.983 -41.301,4.937 -84.072,-5.322 -121.21,-23.172 -1.984,-0.954 -3.143,2.252 -1.183,3.195 z"
           id="path31"
           inkscape:connector-curvature="0" />
        <path
           d="m 345.2875,259.95551 c 1.646,-1.645 3.291,-3.292 4.938,-3.292"
           id="path57"
           inkscape:connector-curvature="0"
           style="fill:#666666" />
        <path
           d="m 346.8765,261.83351 c 0.71,-0.708 1.421,-1.411 2.194,-2.049 0.599,-0.495 0.957,-0.663 1.582,-0.697 1.34,-0.073 2.203,-1.646 1.992,-2.845 -0.254,-1.438 -1.509,-2.065 -2.846,-1.992 -2.486,0.135 -4.451,2.19 -6.101,3.837 -0.945,0.944 -1.204,2.379 -0.284,3.462 0.815,0.957 2.514,1.231 3.463,0.284 z"
           id="path59"
           inkscape:connector-curvature="0"
           style="fill:#666666" />
        <path
           d="m 256.4175,263.25551 c -11.521,-1.646 -21.396,-9.875 -29.624,-18.103"
           id="path61"
           inkscape:connector-curvature="0"
           style="fill:#666666" />
        <path
           d="m 256.6495,260.80651 c -11.227,-1.904 -20.132,-9.471 -27.982,-17.246 -2.23,-2.209 -6.002,0.943 -3.746,3.178 8.845,8.761 18.657,16.821 31.265,18.959 3.13,0.531 3.563,-4.366 0.463,-4.891 z"
           id="path63"
           inkscape:connector-curvature="0"
           style="fill:#666666" />
        <path
           d="m 239.9575,220.46551 c 0,-1.645 -1.647,-3.292 -1.647,-4.936"
           id="path65"
           inkscape:connector-curvature="0"
           style="fill:#666666" />
        <path
           d="m 242.3785,220.03551 c -0.099,-1.844 -1.563,-3.363 -1.647,-4.936 -0.072,-1.34 -1.647,-2.203 -2.845,-1.992 -1.439,0.254 -2.064,1.509 -1.992,2.845 0.099,1.844 1.563,3.363 1.647,4.936 0.072,1.34 1.647,2.203 2.845,1.992 1.439,-0.255 2.064,-1.509 1.992,-2.845 z"
           id="path67"
           inkscape:connector-curvature="0"
           style="fill:#666666" />
        <path
           d="m 276.1675,205.64551 c 0,-1.647 1.645,-3.292 1.645,-6.583"
           id="path69"
           inkscape:connector-curvature="0"
           style="fill:#666666" />
        <path
           d="m 278.6125,205.88251 c 0.026,-0.573 0.393,-1.336 0.739,-2.203 0.556,-1.392 0.871,-2.883 0.906,-4.38 0.075,-3.153 -4.816,-3.629 -4.891,-0.464 -0.056,2.363 -1.539,4.272 -1.645,6.583 -0.145,3.159 4.745,3.627 4.891,0.464 z"
           id="path71"
           inkscape:connector-curvature="0"
           style="fill:#666666" />
        <path
           d="M 343.6475,205.64551"
           id="path73"
           inkscape:connector-curvature="0"
           style="fill:#666666" />
        <path
           d="m 343.4115,208.09651 c 3.145,0 3.627,-4.891 0.463,-4.891 -3.145,0 -3.627,4.891 -0.463,4.891 z"
           id="path75"
           inkscape:connector-curvature="0"
           style="fill:#666666" />
        <path
           d="m 312.3775,176.02551 c -1.646,0 -3.292,-1.645 -3.292,-1.645"
           id="path77"
           inkscape:connector-curvature="0"
           style="fill:#666666" />
        <path
           d="m 312.6045,173.58151 c -0.127,-0.005 -0.715,-0.096 -0.105,0.044 -0.18,-0.042 -0.354,-0.11 -0.524,-0.177 -0.117,-0.045 -0.645,-0.339 -0.093,-0.03 -0.148,-0.083 -0.29,-0.177 -0.431,-0.271 -0.23,-0.153 -0.447,-0.325 -0.658,-0.502 -0.443,-0.372 0.419,0.403 0.161,0.148 -0.951,-0.938 -2.374,-1.209 -3.462,-0.284 -0.952,0.809 -1.239,2.52 -0.284,3.462 1.312,1.293 3.039,2.433 4.934,2.501 1.336,0.048 2.546,-0.824 2.677,-2.213 0.118,-1.274 -0.878,-2.63 -2.215,-2.678 z"
           id="path79"
           inkscape:connector-curvature="0"
           style="fill:#666666" />
        <path
           d="m 309.0775,240.20551 c -3.292,3.292 -8.228,6.583 -13.164,6.583"
           id="path81"
           inkscape:connector-curvature="0"
           style="fill:#666666" />
        <path
           d="m 307.4915,238.33751 c -3.053,2.963 -6.918,5.84 -11.344,6.011 -3.122,0.12 -3.616,5.012 -0.463,4.891 5.859,-0.225 10.843,-3.135 14.984,-7.155 2.259,-2.193 -0.898,-5.96 -3.177,-3.747 z"
           id="path83"
           inkscape:connector-curvature="0"
           style="fill:#666666" />
        <path
           d="m 170.8375,337.30551 c -1.645,-1.646 -4.937,-3.292 -6.583,-4.937"
           id="path85"
           inkscape:connector-curvature="0"
           style="fill:#666666" />
        <path
           d="m 172.7115,335.72151 c -1.998,-1.911 -4.6,-3.043 -6.583,-4.937 -0.966,-0.922 -2.361,-1.22 -3.462,-0.284 -0.939,0.799 -1.254,2.535 -0.284,3.462 2,1.908 4.602,3.041 6.583,4.937 0.965,0.924 2.362,1.219 3.462,0.284 0.94,-0.799 1.253,-2.535 0.284,-3.462 z"
           id="path87"
           inkscape:connector-curvature="0"
           style="fill:#666666" />
        <path
           d="m 200.4575,348.82551 c -1.645,0 -3.292,-1.646 -3.292,-1.646"
           id="path89"
           inkscape:connector-curvature="0"
           style="fill:#666666" />
        <path
           d="m 200.6935,346.38451 c -0.127,-0.005 -0.715,-0.096 -0.105,0.044 -0.18,-0.041 -0.354,-0.11 -0.525,-0.177 -0.117,-0.045 -0.644,-0.339 -0.093,-0.03 -0.148,-0.083 -0.29,-0.178 -0.431,-0.271 -0.229,-0.153 -0.446,-0.325 -0.658,-0.503 -0.443,-0.371 0.419,0.402 0.161,0.148 -0.951,-0.938 -2.374,-1.209 -3.462,-0.284 -0.952,0.809 -1.239,2.52 -0.284,3.462 1.311,1.294 3.039,2.434 4.933,2.502 1.337,0.049 2.546,-0.824 2.677,-2.214 0.121,-1.274 -0.875,-2.629 -2.213,-2.677 z"
           id="path91"
           inkscape:connector-curvature="0"
           style="fill:#666666" />
        <path
           d="m 238.3175,370.22551 c 1.647,-3.291 3.292,-6.583 6.583,-8.229"
           id="path93"
           inkscape:connector-curvature="0"
           style="fill:#666666" />
        <path
           d="m 240.6175,371.07751 c 1.297,-2.589 2.672,-5.44 5.333,-6.863 2.78,-1.486 0.693,-5.935 -2.108,-4.438 -3.917,2.094 -5.913,5.764 -7.833,9.596 -0.601,1.2 0.3,2.729 1.451,3.156 1.36,0.504 2.558,-0.257 3.157,-1.451 z"
           id="path95"
           inkscape:connector-curvature="0"
           style="fill:#666666" />
        <path
           d="m 287.6875,353.76551 c 3.292,0 6.583,-1.647 8.23,-4.938"
           id="path97"
           inkscape:connector-curvature="0"
           style="fill:#666666" />
        <path
           d="m 287.4545,356.21351 c 4.344,-0.099 8.366,-2.036 10.474,-5.976 0.631,-1.179 0.591,-2.584 -0.604,-3.42 -0.997,-0.698 -2.787,-0.579 -3.42,0.604 -1.229,2.297 -3.31,3.841 -5.986,3.901 -1.337,0.03 -2.541,0.766 -2.677,2.214 -0.115,1.213 0.873,2.707 2.213,2.677 z"
           id="path99"
           inkscape:connector-curvature="0"
           style="fill:#666666" />
        <path
           d="m 337.0575,371.86551 c 6.584,-1.645 13.167,-4.936 19.75,-8.228"
           id="path101"
           inkscape:connector-curvature="0"
           style="fill:#666666" />
        <path
           d="m 337.4855,374.28751 c 7.161,-1.913 13.771,-5.126 20.377,-8.427 2.827,-1.412 0.732,-5.856 -2.107,-4.438 -6.193,3.095 -12.405,6.232 -19.123,8.028 -3.035,0.812 -2.208,5.655 0.853,4.837 z"
           id="path103"
           inkscape:connector-curvature="0"
           style="fill:#666666" />
        <path
           d="M 401.2475,340.60551"
           id="path105"
           inkscape:connector-curvature="0"
           style="fill:#666666" />
        <path
           d="m 401.0175,343.04551 c 3.145,0 3.627,-4.891 0.463,-4.891 -3.145,0 -3.627,4.891 -0.463,4.891 z"
           id="path107"
           inkscape:connector-curvature="0"
           style="fill:#666666" />
        <path
           d="M 429.2175,320.85551"
           id="path109"
           inkscape:connector-curvature="0"
           style="fill:#666666" />
        <path
           d="m 428.9905,323.29751 c 3.145,0 3.627,-4.891 0.463,-4.891 -3.144,0 -3.627,4.891 -0.463,4.891 z"
           id="path111"
           inkscape:connector-curvature="0"
           style="fill:#666666" />
        <path
           d="m 427.5775,450.86551 c 0,-6.583 1.648,-13.166 3.294,-19.749"
           id="path113"
           inkscape:connector-curvature="0"
           style="fill:#666666" />
        <path
           d="m 430.0195,451.09651 c 0.123,-6.535 1.576,-12.813 3.152,-19.128 0.76,-3.045 -3.842,-4.773 -4.607,-1.705 -1.675,6.713 -3.306,13.417 -3.436,20.37 -0.06,3.151 4.831,3.628 4.891,0.463 z"
           id="path115"
           inkscape:connector-curvature="0"
           style="fill:#666666" />
        <path
           d="M 458.8475,399.84551"
           id="path117"
           inkscape:connector-curvature="0"
           style="fill:#666666" />
        <path
           d="m 458.6125,402.29451 c 3.145,0 3.627,-4.891 0.463,-4.891 -3.144,0 -3.627,4.891 -0.463,4.891 z"
           id="path119"
           inkscape:connector-curvature="0"
           style="fill:#666666" />
        <path
           d="m 374.9075,454.15551 c -6.583,-1.646 -11.52,-3.294 -18.103,-3.294"
           id="path121"
           inkscape:connector-curvature="0"
           style="fill:#666666" />
        <path
           d="m 375.7645,451.85451 c -6.203,-1.573 -12.277,-3.329 -18.724,-3.436 -3.15,-0.053 -3.628,4.838 -0.463,4.891 6.028,0.101 11.678,1.68 17.481,3.152 3.045,0.772 4.771,-3.828 1.706,-4.607 z"
           id="path123"
           inkscape:connector-curvature="0"
           style="fill:#666666" />
        <path
           d="m 307.4375,473.90551 c -3.292,-1.648 -6.583,-3.294 -9.875,-6.583"
           id="path125"
           inkscape:connector-curvature="0"
           style="fill:#666666" />
        <path
           d="m 308.2875,471.60551 c -3.201,-1.604 -6.269,-3.354 -8.854,-5.868 -2.248,-2.186 -6.022,0.966 -3.746,3.178 3.23,3.14 6.895,5.292 10.896,7.298 2.834,1.421 4.501,-3.205 1.704,-4.608 z"
           id="path127"
           inkscape:connector-curvature="0"
           style="fill:#666666" />
        <path
           d="m 231.7275,439.34551 c -8.228,-1.648 -14.811,-3.293 -23.039,-3.293"
           id="path129"
           inkscape:connector-curvature="0"
           style="fill:#666666" />
        <path
           d="m 231.9625,436.90151 c -7.653,-1.552 -15.198,-3.183 -23.039,-3.293 -3.15,-0.045 -3.628,4.846 -0.464,4.891 7.841,0.111 15.386,1.741 23.039,3.293 3.108,0.63 3.531,-4.269 0.464,-4.891 z"
           id="path131"
           inkscape:connector-curvature="0"
           style="fill:#666666" />
        <path
           d="m 147.7975,452.51551 c -8.229,-3.293 -14.813,-8.231 -19.749,-14.814"
           id="path133"
           inkscape:connector-curvature="0"
           style="fill:#666666" />
        <path
           d="m 148.6475,450.20551 c -7.472,-3.09 -13.781,-7.682 -18.729,-14.1 -1.935,-2.509 -5.678,0.672 -3.746,3.178 5.446,7.064 12.557,12.132 20.77,15.529 2.937,1.214 4.622,-3.4 1.705,-4.607 z"
           id="path135"
           inkscape:connector-curvature="0"
           style="fill:#666666" />
        <path
           d="m 132.9875,406.43551 c 0,-1.648 0,-3.293 1.647,-6.583"
           id="path137"
           inkscape:connector-curvature="0"
           style="fill:#666666" />
        <path
           d="m 135.4315,406.66351 c 0.002,-2.226 0.514,-3.934 1.505,-5.962 0.589,-1.205 -0.291,-2.726 -1.451,-3.156 -1.35,-0.501 -2.57,0.251 -3.156,1.451 -1.125,2.305 -1.787,4.636 -1.789,7.204 -0.001,1.337 0.789,2.543 2.213,2.677 1.238,0.116 2.677,-0.874 2.678,-2.214 z"
           id="path139"
           inkscape:connector-curvature="0"
           style="fill:#666666" />
        <path
           d="M 157.6675,396.55551"
           id="path141"
           inkscape:connector-curvature="0"
           style="fill:#666666" />
        <path
           d="m 157.4375,399.00551 c 3.145,0 3.627,-4.891 0.464,-4.891 -3.144,0 -3.627,4.891 -0.464,4.891 z"
           id="path143"
           inkscape:connector-curvature="0"
           style="fill:#666666" />
        <path
           d="M 180.7175,447.57551"
           id="path145"
           inkscape:connector-curvature="0"
           style="fill:#666666" />
        <path
           d="m 180.6355,448.39551 c 1.054,0 1.215,-1.639 0.155,-1.639 -1.054,0 -1.215,1.639 -0.155,1.639 z"
           id="path147"
           inkscape:connector-curvature="0"
           style="fill:#666666" />
        <path
           d="m 290.9775,482.13551 c 4.938,4.938 9.875,8.229 14.811,13.166"
           id="path149"
           inkscape:connector-curvature="0"
           style="fill:#666666" />
        <path
           d="m 289.1045,483.72451 c 4.721,4.637 10.093,8.53 14.811,13.166 2.238,2.199 6.011,-0.953 3.746,-3.178 -4.72,-4.638 -10.092,-8.531 -14.811,-13.166 -2.238,-2.198 -6.011,0.953 -3.746,3.178 z"
           id="path151"
           inkscape:connector-curvature="0"
           style="fill:#666666" />
        <path
           d="m 369.9775,477.19551 c 4.937,-3.289 9.872,-4.938 16.455,-4.938"
           id="path153"
           inkscape:connector-curvature="0"
           style="fill:#666666" />
        <path
           d="m 371.5635,479.06951 c 4.463,-2.885 9.332,-4.286 14.635,-4.365 3.137,-0.047 3.624,-4.938 0.463,-4.891 -6.776,0.102 -12.588,1.833 -18.275,5.51 -2.652,1.714 0.551,5.445 3.177,3.746 z"
           id="path155"
           inkscape:connector-curvature="0"
           style="fill:#666666" />
      </g>
      <g
         transform="matrix(1.1708338,-0.6990345,0.6990345,1.1708338,-311.08025,469.48373)"
         id="g4479">
        <path
           style="fill:#993300"
           inkscape:connector-curvature="0"
           d="m 529.83,113.41 c -5.104,-1.01 -4.063,-3.398 -6.192,-6.29 -2.6,-2.679 -1.687,-1.442 -4.533,-3.187 -2.455,-1.647 -3.009,-1.124 -4.915,-3.292 -1.989,-1.855 -1.747,-2.79 -4.59,-4.535 -7.234,-3.9 -22.182,-5.167 -30.481,-5.02 11.146,1.6 20.556,5.073 30.247,-0.368 2.888,-1.569 2.888,-1.569 4.013,-4.269 1.839,-3.843 -1.356,-2.689 2.854,-4.575 4.681,-2.098 7.936,-1.906 12.01,-4.83"
           id="path157" />
        <path
           inkscape:connector-curvature="0"
           d="m 530.783,110.843 c -4.177,-1.086 -4.376,-6.331 -8.366,-8.233 -1.982,-0.945 -4.579,-2.167 -6.137,-3.739 -1.754,-1.769 -3.015,-3.574 -5.107,-5.005 -4.056,-2.773 -10.01,-3.534 -14.736,-4.304 -5.619,-0.915 -11.368,-1.257 -17.057,-1.199 -3.489,0.036 -4.054,4.908 -0.516,5.448 10.812,1.651 24.849,5.892 34.349,-2.209 2.253,-1.921 3.884,-5.516 3.424,-8.495 l -0.372,1.768 c 0.869,-0.418 1.755,-0.802 2.656,-1.149 1.488,-0.613 3.116,-0.989 4.656,-1.459 2.367,-0.722 4.379,-1.792 6.438,-3.134 2.948,-1.92 -0.618,-6.075 -3.539,-4.173 -4.031,2.625 -9.015,3.108 -13.261,5.34 -2.32,1.219 -1.597,3.196 -2.4,5.202 -2.002,4.997 -10.446,5.544 -14.985,5.373 -5.521,-0.209 -11.005,-1.679 -16.45,-2.51 l -0.516,5.448 c 5.235,-0.054 10.449,0.313 15.64,0.992 4.851,0.635 12.183,1.378 15.628,5.299 2.978,3.389 5.798,5.408 9.89,7.403 1.911,0.932 2.364,3.329 3.359,4.992 1.229,2.055 3.28,2.9 5.504,3.478 3.387,0.879 5.309,-4.247 1.898,-5.134 z"
           id="path159" />
        <path
           style="fill:#cccccc"
           inkscape:connector-curvature="0"
           d="m 608.95,104.16 c 42.697,48.175 -28.814,98.229 -30.13,31.089 -10.134,13.873 -16.531,51.757 -40.347,28.504 -18.525,-18.999 6.041,-43.808 13.192,-61.615"
           id="path161" />
        <path
           inkscape:connector-curvature="0"
           d="m 607.075,105.749 c 13.109,15.065 19.517,39.343 2.741,54.472 -4.735,4.271 -11.847,6.918 -17.814,3.57 -9.21,-5.167 -10.488,-19.032 -10.738,-28.31 -0.063,-2.32 -2.912,-3.819 -4.457,-1.641 -4.896,6.907 -7.679,15.112 -11.628,22.552 -3.787,7.133 -9.528,15.457 -18.475,10.68 -28.307,-15.117 -0.473,-45.51 7.264,-64.081 1.222,-2.933 -3.394,-4.618 -4.607,-1.705 -5.503,13.209 -15.27,24.302 -19.007,38.313 -3.503,13.132 2.509,25.608 14.427,31.973 20.417,10.904 28.057,-23.639 36.05,-34.914 l -4.457,-1.641 c 0.302,11.215 1.979,24.989 11.803,32.149 7.056,5.143 16.104,3.112 22.76,-1.555 8.266,-5.796 12.868,-15.95 13.881,-25.755 1.433,-13.88 -5.107,-27.071 -13.995,-37.285 -2.078,-2.386 -5.833,0.782 -3.748,3.178 z"
           id="path163" />
        <path
           style="fill:#cccccc"
           inkscape:connector-curvature="0"
           d="M 609.57,93.41 C 658.22,51.251 593.891,-7.75 583.783,58.641 575.552,43.557 574.179,5.162 547.521,25.091 c -20.855,16.404 0.243,44.218 4.999,62.812"
           id="path165" />
        <path
           inkscape:connector-curvature="0"
           d="m 611.163,95.283 c 10.15,-8.97 17.839,-20.625 18.787,-34.42 0.692,-10.092 -2.855,-20.717 -10.102,-27.871 -5.811,-5.737 -14.092,-8.485 -21.836,-5.14 -11.253,4.861 -14.941,19.766 -16.671,30.559 l 4.664,-0.823 c -6.45,-12.214 -8.934,-45.779 -29.923,-39.848 -13.088,3.699 -20.716,15.711 -19.916,28.869 0.901,14.826 10.151,27.668 13.939,41.721 0.817,3.033 5.661,2.207 4.836,-0.853 -5.497,-20.399 -28.722,-52.829 1.731,-64.799 8.804,-3.46 13.385,5.714 16.051,12.43 3.205,8.075 4.767,16.868 8.844,24.587 1.166,2.208 4.279,1.58 4.664,-0.823 1.504,-9.381 4.417,-22.009 13.889,-26.584 6.313,-3.049 13.164,0.712 17.44,5.398 15.31,16.777 5.14,40.846 -9.576,53.85 -2.367,2.094 0.799,5.85 3.179,3.747 z"
           id="path167" />
        <path
           style="fill:#ffff99"
           inkscape:connector-curvature="0"
           d="m 550.69,108.73 c 13.404,13.734 82.264,30.141 85.102,-6.549 0.33,-27.142 -66.263,-32.741 -82.093,-11.377"
           id="path169" />
        <path
           inkscape:connector-curvature="0"
           d="m 548.817,110.321 c 9.152,9.076 24.152,12.721 36.376,15.016 14.021,2.632 30.968,3.379 43.284,-5.013 11.042,-7.524 12.888,-23.295 3.233,-32.557 -11.128,-10.675 -29.563,-12.941 -44.242,-12.375 -12.563,0.483 -27.645,3.465 -35.781,14.006 -1.938,2.512 2.093,5.318 4.023,2.817 9.627,-12.474 30.727,-12.99 44.863,-11.464 11.835,1.277 34.614,6.964 32.571,23.021 -2.086,16.401 -21.506,18.833 -34.732,18.207 -14.391,-0.681 -30.714,-4.354 -42.861,-12.445 -1.062,-0.707 -2.082,-1.492 -2.988,-2.39 -2.23,-2.211 -6.001,0.941 -3.746,3.177 z"
           id="path171" />
        <path
           style="fill:#ffcc66"
           inkscape:connector-curvature="0"
           d="m 572.777,119.708 c -3.327,-8.863 -2.888,-19.397 -0.515,-28.426 0.981,-3.735 1.375,-10.29 4.684,-12.746 2.919,-2.23 10.715,-1.51 13.814,0.635 7.193,5.552 2.327,20.251 1.607,28.047 -0.292,4.917 -0.505,9.522 -5.303,12.584 -3.702,2.687 -9.964,3.707 -13.666,0.068"
           id="path173" />
        <path
           inkscape:connector-curvature="0"
           d="m 574.996,118.654 c -3.28,-9.455 -2.017,-18.595 -0.053,-28.129 0.629,-3.056 0.828,-8.405 3.813,-10.233 3.07,-1.88 9.377,-0.595 11.635,1.968 4.401,4.995 0.893,15.921 -0.058,21.65 -0.555,3.344 -0.387,6.773 -1.433,10.024 -1.79,5.565 -9.872,7.396 -14.093,3.925 -2.45,-2.015 -5.249,2.024 -2.816,4.023 4.122,3.39 9.084,3.272 13.886,1.421 5.196,-2.003 7.808,-6.715 8.621,-11.925 0.868,-5.562 1.596,-11.265 2.293,-16.861 0.587,-4.702 0.742,-10.477 -2.061,-14.569 -5.202,-7.593 -18.736,-7.21 -22.555,1.301 -2.36,5.263 -3.185,12.42 -3.904,18.077 -0.92,7.239 -0.097,14.563 2.287,21.436 1.036,2.987 5.466,0.856 4.438,-2.108 z"
           id="path175" />
        <path
           style="fill:#ffcc66"
           inkscape:connector-curvature="0"
           d="m 607.02,122.39 c 3.422,-5.421 6.78,-11.862 8.187,-18.481 1.493,-6.932 -0.133,-14.68 1.978,-21.447 4.541,-0.804 8.914,5.34 11.374,8.65 3.377,4.879 3.801,8.321 2.558,14.316 -2.648,12.617 -10.68,17.83 -23.406,18.142"
           id="path177" />
        <path
           inkscape:connector-curvature="0"
           d="m 609.031,123.796 c 3.699,-5.967 6.851,-12.17 8.479,-19.038 1.672,-7.055 0.091,-14.421 1.978,-21.447 l -1.877,1.566 c 4.323,-0.236 8.45,6.602 10.285,9.829 2.422,4.257 1.25,9.422 -0.165,13.802 -2.888,8.94 -11.043,12.269 -19.79,12.614 -3.121,0.123 -3.616,5.015 -0.463,4.891 12.479,-0.492 22.173,-5.806 25.625,-18.363 1.851,-6.733 1.129,-12.316 -2.672,-18.129 -3.108,-4.754 -7.577,-9.813 -13.674,-9.48 -0.777,0.042 -1.678,0.824 -1.877,1.566 -1.665,6.2 -1.141,12.48 -1.627,18.817 -0.565,7.375 -4.43,14.401 -8.245,20.555 -1.664,2.683 2.351,5.514 4.023,2.817 z"
           id="path179" />
        <path
           style="fill:#9900cc"
           inkscape:connector-curvature="0"
           d="m 550.5,101.18 c 9.588,6.905 12.624,19.079 6.783,27.193 -5.841,8.114 -18.351,9.094 -27.938,2.19 -9.589,-6.905 -12.628,-19.079 -6.784,-27.192 5.84,-8.115 18.351,-9.096 27.939,-2.191 z"
           id="path181" />
        <path
           inkscape:connector-curvature="0"
           d="m 550.08,101.791 c 7.67,5.863 12.31,16.029 7.285,25.127 -5.604,10.147 -19.445,8.548 -27.591,3.043 -7.974,-5.389 -12.113,-16.392 -7.287,-25.126 5.606,-10.147 19.444,-8.551 27.593,-3.044 0.791,0.535 1.643,-0.677 0.85,-1.213 -9.083,-6.139 -21.692,-6.902 -28.971,2.373 -7.266,9.258 -1.13,22.036 6.966,28.224 8.706,6.655 21.975,6.537 28.97,-2.372 7.267,-9.255 1.127,-22.039 -6.965,-28.224 -0.762,-0.582 -1.607,0.633 -0.85,1.212 z"
           id="path183" />
        <path
           style="fill:#9900cc"
           inkscape:connector-curvature="0"
           d="m 531,97.285 c 9.589,6.903 22.96,4.728 29.861,-4.863 6.905,-9.588 4.729,-22.959 -4.858,-29.862 -9.587,-6.903 -22.96,-4.728 -29.865,4.86 -6.905,9.591 -4.729,22.96 4.862,29.865 z"
           id="path185" />
        <path
           inkscape:connector-curvature="0"
           d="m 530.58,97.892 c 10.259,6.893 23.36,4.739 30.893,-5.044 7.537,-9.789 4.271,-23.722 -5.04,-30.894 -9.787,-7.54 -23.726,-4.265 -30.896,5.042 -7.543,9.788 -4.267,23.726 5.043,30.896 0.758,0.584 1.604,-0.632 0.85,-1.213 -9.149,-7.047 -11.112,-19.263 -4.681,-28.833 6.438,-9.579 19.729,-10.797 28.834,-4.679 9.58,6.437 10.796,19.727 4.677,28.831 -6.438,9.579 -19.723,10.8 -28.83,4.681 -0.794,-0.533 -1.644,0.679 -0.85,1.213 z"
           id="path187" />
        <path
           style="fill:#ffffff;stroke:#000000;stroke-width:0.4937"
           inkscape:connector-curvature="0"
           d="m 531.35,104.488 c 2.664,0.701 4.256,3.43 3.555,6.094 -0.701,2.664 -3.43,4.256 -6.094,3.555 l -0.312,-0.082 c -2.664,-0.701 -4.256,-3.43 -3.555,-6.094 0.701,-2.664 3.426,-4.256 6.091,-3.555 l 0.315,0.082 z"
           id="path189" />
        <path
           style="fill:#ffffff;stroke:#000000;stroke-width:0.4937"
           inkscape:connector-curvature="0"
           d="m 531.834,70.998 c 2.665,0.701 4.257,3.43 3.556,6.094 -0.701,2.665 -3.427,4.256 -6.095,3.555 l -0.311,-0.082 c -2.664,-0.701 -4.256,-3.43 -3.555,-6.092 0.701,-2.667 3.426,-4.258 6.09,-3.557 l 0.315,0.082 z"
           id="path191" />
        <path
           inkscape:connector-curvature="0"
           d="m 574.363,74.221 c -3.854,-9.705 -7.054,-19.636 -10.947,-29.331 -2.813,-7.004 -5.648,-14.785 -11.446,-19.904 -2.374,-2.096 -5.165,1.95 -2.816,4.023 5.268,4.652 7.704,12.707 10.249,19.045 3.752,9.342 6.81,18.922 10.523,28.275 1.168,2.943 5.602,0.825 4.437,-2.108 z"
           id="path193" />
        <path
           inkscape:connector-curvature="0"
           d="m 601.983,76.388 c 0.166,-3.636 -0.616,-7.199 -1.143,-10.785 -0.713,-4.864 -0.235,-9.903 0.188,-14.772 0.356,-4.102 0.041,-10.219 3.069,-13.388 1.723,-1.802 3.273,-2.946 4.224,-5.327 1.177,-2.951 -3.437,-4.64 -4.607,-1.705 -1.048,2.629 -4.026,4.383 -5.425,6.956 -1.745,3.21 -1.626,7.529 -1.969,11.06 -0.438,4.509 -0.753,8.997 -0.65,13.53 0.105,4.674 1.635,9.311 1.422,13.969 -0.144,3.157 4.746,3.625 4.891,0.462 z"
           id="path195" />
        <path
           inkscape:connector-curvature="0"
           d="m 544.781,166.18 c 2.382,-8.938 9.809,-15.454 13.834,-23.635 1.536,-3.122 3.432,-17.762 7.803,-17.344 3.158,0.302 3.612,-4.59 0.463,-4.891 -7.688,-0.735 -9.682,10.143 -11.146,15.616 -2.883,10.769 -12.695,17.797 -15.561,28.549 -0.81,3.039 3.791,4.763 4.607,1.705 z"
           id="path197" />
        <path
           inkscape:connector-curvature="0"
           d="m 590.241,126.044 c -1.132,8.9 3.259,16.951 3.491,25.745 0.128,4.863 -0.731,12.661 4.254,15.538 2.723,1.572 5.563,-2.438 2.816,-4.023 -3.412,-1.97 -2.131,-10.41 -2.28,-13.825 -0.344,-7.876 -4.409,-14.963 -3.391,-22.971 0.401,-3.151 -4.492,-3.595 -4.89,-0.464 z"
           id="path199" />
        <path
           inkscape:connector-curvature="0"
           d="m 550.34,141.55 c -3.871,5.808 -9.715,1.289 -14.388,-1.107 -2.82,-1.446 -4.484,3.182 -1.705,4.607 7.028,3.604 14.649,7.52 20.116,-0.683 1.757,-2.634 -2.263,-5.456 -4.023,-2.817 z"
           id="path201" />
        <path
           inkscape:connector-curvature="0"
           d="m 555.745,140.257 c 2.105,6.751 3.842,13.228 9.005,18.363 2.227,2.214 5.998,-0.938 3.746,-3.178 -4.548,-4.523 -6.057,-10.081 -7.913,-16.038 -0.93,-2.98 -5.779,-2.165 -4.838,0.853 z"
           id="path203" />
        <path
           inkscape:connector-curvature="0"
           d="m 590.09,136.66 c -2.033,4.172 -5.009,7.951 -9.119,10.22 -2.757,1.521 -0.673,5.972 2.107,4.438 5.312,-2.931 8.991,-7.562 11.619,-12.952 1.391,-2.854 -3.234,-4.523 -4.607,-1.706 z"
           id="path205" />
        <path
           inkscape:connector-curvature="0"
           d="m 594.61,145.73 c 3.32,7.014 8.984,12.925 16.098,16.106 2.9,1.297 4.578,-3.322 1.705,-4.607 -5.935,-2.653 -10.61,-7.787 -13.365,-13.607 -1.354,-2.859 -5.796,-0.76 -4.438,2.108 z"
           id="path207" />
        <path
           inkscape:connector-curvature="0"
           d="m 566.44,53.609 c -8.405,-3.167 -14.229,-10.681 -23.675,-11.197 -3.159,-0.173 -3.625,4.718 -0.463,4.891 8.669,0.474 14.599,7.961 22.433,10.914 2.971,1.118 4.665,-3.492 1.705,-4.608 z"
           id="path209" />
        <path
           inkscape:connector-curvature="0"
           d="m 572.189,71.507 c 4.311,-6.909 7.542,-15.854 6.925,-24.083 -0.236,-3.158 -5.07,-2.275 -4.836,0.853 0.51,6.806 -2.562,14.722 -6.112,20.414 -1.671,2.677 2.343,5.508 4.023,2.816 z"
           id="path211" />
        <path
           inkscape:connector-curvature="0"
           d="m 600.968,62.912 c -2.882,-4.938 -5.826,-9.836 -9.786,-14 -2.172,-2.283 -5.937,0.875 -3.746,3.178 3.677,3.866 6.418,8.345 9.095,12.931 1.582,2.71 6.037,0.632 4.437,-2.109 z"
           id="path213" />
        <path
           inkscape:connector-curvature="0"
           d="m 602.241,70 c 4.232,-3.674 9.246,-5.892 13.884,-8.944 1.482,-0.975 2.756,-2.361 4.034,-3.577 0.84,-0.798 3.515,-4.128 4.752,-4.098 3.153,0.078 3.628,-4.813 0.463,-4.891 -4.093,-0.101 -7.397,4.324 -10.102,6.854 -4.751,4.445 -11.247,6.602 -16.209,10.909 -2.389,2.075 0.779,5.83 3.178,3.747 z"
           id="path215" />
        <path
           inkscape:connector-curvature="0"
           d="m 620.913,131.897 c 3.001,1.017 5.968,2.037 8.5,3.993 2.667,2.06 3.334,6.066 3.961,9.134 0.334,1.636 1.971,2.388 3.472,1.792 5.188,-2.058 10.087,-3.327 15.703,-3.051 2.473,0.121 6.891,0.567 9.123,1.882 l 0.981,-4.43 -0.069,-0.067 c -3.154,-0.366 -3.602,4.527 -0.463,4.891 0.476,0.055 0.906,0.086 1.386,0.014 2.02,-0.305 2.854,-3.329 0.981,-4.43 -8.82,-5.193 -20.921,-2.748 -29.75,0.755 1.157,0.598 2.314,1.195 3.472,1.792 -0.787,-3.854 -1.776,-7.575 -4.285,-10.686 -2.71,-3.36 -7.394,-4.87 -11.307,-6.196 -3.001,-1.017 -4.705,3.59 -1.705,4.607 z"
           id="path217" />
        <path
           inkscape:connector-curvature="0"
           d="m 625.492,77.777 c 6.761,-5.585 13.401,-10.379 17.735,-18.211 l -3.885,0.18 c 5.896,6.332 13.923,8.994 22.375,6.772 3.04,-0.799 2.212,-5.643 -0.854,-4.837 -6.767,1.779 -12.982,0.034 -17.775,-5.113 -0.983,-1.056 -3.08,-1.274 -3.885,0.18 -4.133,7.468 -10.452,11.965 -16.89,17.282 -2.44,2.018 0.733,5.767 3.179,3.747 z"
           id="path219" />
      </g>
      <g
         inkscape:transform-center-y="-35.937502"
         inkscape:transform-center-x="-53.125003"
         id="g4570"
         transform="matrix(-1.1841365,-0.67625569,0.67625569,-1.1841365,805.79965,870.58023)">
        <path
           id="path4572"
           d="m 529.83,113.41 c -5.104,-1.01 -4.063,-3.398 -6.192,-6.29 -2.6,-2.679 -1.687,-1.442 -4.533,-3.187 -2.455,-1.647 -3.009,-1.124 -4.915,-3.292 -1.989,-1.855 -1.747,-2.79 -4.59,-4.535 -7.234,-3.9 -22.182,-5.167 -30.481,-5.02 11.146,1.6 20.556,5.073 30.247,-0.368 2.888,-1.569 2.888,-1.569 4.013,-4.269 1.839,-3.843 -1.356,-2.689 2.854,-4.575 4.681,-2.098 7.936,-1.906 12.01,-4.83"
           inkscape:connector-curvature="0"
           style="fill:#993300" />
        <path
           id="path4574"
           d="m 530.783,110.843 c -4.177,-1.086 -4.376,-6.331 -8.366,-8.233 -1.982,-0.945 -4.579,-2.167 -6.137,-3.739 -1.754,-1.769 -3.015,-3.574 -5.107,-5.005 -4.056,-2.773 -10.01,-3.534 -14.736,-4.304 -5.619,-0.915 -11.368,-1.257 -17.057,-1.199 -3.489,0.036 -4.054,4.908 -0.516,5.448 10.812,1.651 24.849,5.892 34.349,-2.209 2.253,-1.921 3.884,-5.516 3.424,-8.495 l -0.372,1.768 c 0.869,-0.418 1.755,-0.802 2.656,-1.149 1.488,-0.613 3.116,-0.989 4.656,-1.459 2.367,-0.722 4.379,-1.792 6.438,-3.134 2.948,-1.92 -0.618,-6.075 -3.539,-4.173 -4.031,2.625 -9.015,3.108 -13.261,5.34 -2.32,1.219 -1.597,3.196 -2.4,5.202 -2.002,4.997 -10.446,5.544 -14.985,5.373 -5.521,-0.209 -11.005,-1.679 -16.45,-2.51 l -0.516,5.448 c 5.235,-0.054 10.449,0.313 15.64,0.992 4.851,0.635 12.183,1.378 15.628,5.299 2.978,3.389 5.798,5.408 9.89,7.403 1.911,0.932 2.364,3.329 3.359,4.992 1.229,2.055 3.28,2.9 5.504,3.478 3.387,0.879 5.309,-4.247 1.898,-5.134 z"
           inkscape:connector-curvature="0" />
        <path
           id="path4576"
           d="m 608.95,104.16 c 42.697,48.175 -28.814,98.229 -30.13,31.089 -10.134,13.873 -16.531,51.757 -40.347,28.504 -18.525,-18.999 6.041,-43.808 13.192,-61.615"
           inkscape:connector-curvature="0"
           style="fill:#cccccc" />
        <path
           id="path4578"
           d="m 607.075,105.749 c 13.109,15.065 19.517,39.343 2.741,54.472 -4.735,4.271 -11.847,6.918 -17.814,3.57 -9.21,-5.167 -10.488,-19.032 -10.738,-28.31 -0.063,-2.32 -2.912,-3.819 -4.457,-1.641 -4.896,6.907 -7.679,15.112 -11.628,22.552 -3.787,7.133 -9.528,15.457 -18.475,10.68 -28.307,-15.117 -0.473,-45.51 7.264,-64.081 1.222,-2.933 -3.394,-4.618 -4.607,-1.705 -5.503,13.209 -15.27,24.302 -19.007,38.313 -3.503,13.132 2.509,25.608 14.427,31.973 20.417,10.904 28.057,-23.639 36.05,-34.914 l -4.457,-1.641 c 0.302,11.215 1.979,24.989 11.803,32.149 7.056,5.143 16.104,3.112 22.76,-1.555 8.266,-5.796 12.868,-15.95 13.881,-25.755 1.433,-13.88 -5.107,-27.071 -13.995,-37.285 -2.078,-2.386 -5.833,0.782 -3.748,3.178 z"
           inkscape:connector-curvature="0" />
        <path
           id="path4580"
           d="M 609.57,93.41 C 658.22,51.251 593.891,-7.75 583.783,58.641 575.552,43.557 574.179,5.162 547.521,25.091 c -20.855,16.404 0.243,44.218 4.999,62.812"
           inkscape:connector-curvature="0"
           style="fill:#cccccc" />
        <path
           id="path4582"
           d="m 611.163,95.283 c 10.15,-8.97 17.839,-20.625 18.787,-34.42 0.692,-10.092 -2.855,-20.717 -10.102,-27.871 -5.811,-5.737 -14.092,-8.485 -21.836,-5.14 -11.253,4.861 -14.941,19.766 -16.671,30.559 l 4.664,-0.823 c -6.45,-12.214 -8.934,-45.779 -29.923,-39.848 -13.088,3.699 -20.716,15.711 -19.916,28.869 0.901,14.826 10.151,27.668 13.939,41.721 0.817,3.033 5.661,2.207 4.836,-0.853 -5.497,-20.399 -28.722,-52.829 1.731,-64.799 8.804,-3.46 13.385,5.714 16.051,12.43 3.205,8.075 4.767,16.868 8.844,24.587 1.166,2.208 4.279,1.58 4.664,-0.823 1.504,-9.381 4.417,-22.009 13.889,-26.584 6.313,-3.049 13.164,0.712 17.44,5.398 15.31,16.777 5.14,40.846 -9.576,53.85 -2.367,2.094 0.799,5.85 3.179,3.747 z"
           inkscape:connector-curvature="0" />
        <path
           id="path4584"
           d="m 550.69,108.73 c 13.404,13.734 82.264,30.141 85.102,-6.549 0.33,-27.142 -66.263,-32.741 -82.093,-11.377"
           inkscape:connector-curvature="0"
           style="fill:#ffff99" />
        <path
           id="path4586"
           d="m 548.817,110.321 c 9.152,9.076 24.152,12.721 36.376,15.016 14.021,2.632 30.968,3.379 43.284,-5.013 11.042,-7.524 12.888,-23.295 3.233,-32.557 -11.128,-10.675 -29.563,-12.941 -44.242,-12.375 -12.563,0.483 -27.645,3.465 -35.781,14.006 -1.938,2.512 2.093,5.318 4.023,2.817 9.627,-12.474 30.727,-12.99 44.863,-11.464 11.835,1.277 34.614,6.964 32.571,23.021 -2.086,16.401 -21.506,18.833 -34.732,18.207 -14.391,-0.681 -30.714,-4.354 -42.861,-12.445 -1.062,-0.707 -2.082,-1.492 -2.988,-2.39 -2.23,-2.211 -6.001,0.941 -3.746,3.177 z"
           inkscape:connector-curvature="0" />
        <path
           id="path4588"
           d="m 572.777,119.708 c -3.327,-8.863 -2.888,-19.397 -0.515,-28.426 0.981,-3.735 1.375,-10.29 4.684,-12.746 2.919,-2.23 10.715,-1.51 13.814,0.635 7.193,5.552 2.327,20.251 1.607,28.047 -0.292,4.917 -0.505,9.522 -5.303,12.584 -3.702,2.687 -9.964,3.707 -13.666,0.068"
           inkscape:connector-curvature="0"
           style="fill:#ffcc66" />
        <path
           id="path4590"
           d="m 574.996,118.654 c -3.28,-9.455 -2.017,-18.595 -0.053,-28.129 0.629,-3.056 0.828,-8.405 3.813,-10.233 3.07,-1.88 9.377,-0.595 11.635,1.968 4.401,4.995 0.893,15.921 -0.058,21.65 -0.555,3.344 -0.387,6.773 -1.433,10.024 -1.79,5.565 -9.872,7.396 -14.093,3.925 -2.45,-2.015 -5.249,2.024 -2.816,4.023 4.122,3.39 9.084,3.272 13.886,1.421 5.196,-2.003 7.808,-6.715 8.621,-11.925 0.868,-5.562 1.596,-11.265 2.293,-16.861 0.587,-4.702 0.742,-10.477 -2.061,-14.569 -5.202,-7.593 -18.736,-7.21 -22.555,1.301 -2.36,5.263 -3.185,12.42 -3.904,18.077 -0.92,7.239 -0.097,14.563 2.287,21.436 1.036,2.987 5.466,0.856 4.438,-2.108 z"
           inkscape:connector-curvature="0" />
        <path
           id="path4592"
           d="m 607.02,122.39 c 3.422,-5.421 6.78,-11.862 8.187,-18.481 1.493,-6.932 -0.133,-14.68 1.978,-21.447 4.541,-0.804 8.914,5.34 11.374,8.65 3.377,4.879 3.801,8.321 2.558,14.316 -2.648,12.617 -10.68,17.83 -23.406,18.142"
           inkscape:connector-curvature="0"
           style="fill:#ffcc66" />
        <path
           id="path4594"
           d="m 609.031,123.796 c 3.699,-5.967 6.851,-12.17 8.479,-19.038 1.672,-7.055 0.091,-14.421 1.978,-21.447 l -1.877,1.566 c 4.323,-0.236 8.45,6.602 10.285,9.829 2.422,4.257 1.25,9.422 -0.165,13.802 -2.888,8.94 -11.043,12.269 -19.79,12.614 -3.121,0.123 -3.616,5.015 -0.463,4.891 12.479,-0.492 22.173,-5.806 25.625,-18.363 1.851,-6.733 1.129,-12.316 -2.672,-18.129 -3.108,-4.754 -7.577,-9.813 -13.674,-9.48 -0.777,0.042 -1.678,0.824 -1.877,1.566 -1.665,6.2 -1.141,12.48 -1.627,18.817 -0.565,7.375 -4.43,14.401 -8.245,20.555 -1.664,2.683 2.351,5.514 4.023,2.817 z"
           inkscape:connector-curvature="0" />
        <path
           id="path4596"
           d="m 550.5,101.18 c 9.588,6.905 12.624,19.079 6.783,27.193 -5.841,8.114 -18.351,9.094 -27.938,2.19 -9.589,-6.905 -12.628,-19.079 -6.784,-27.192 5.84,-8.115 18.351,-9.096 27.939,-2.191 z"
           inkscape:connector-curvature="0"
           style="fill:#9900cc" />
        <path
           id="path4598"
           d="m 550.08,101.791 c 7.67,5.863 12.31,16.029 7.285,25.127 -5.604,10.147 -19.445,8.548 -27.591,3.043 -7.974,-5.389 -12.113,-16.392 -7.287,-25.126 5.606,-10.147 19.444,-8.551 27.593,-3.044 0.791,0.535 1.643,-0.677 0.85,-1.213 -9.083,-6.139 -21.692,-6.902 -28.971,2.373 -7.266,9.258 -1.13,22.036 6.966,28.224 8.706,6.655 21.975,6.537 28.97,-2.372 7.267,-9.255 1.127,-22.039 -6.965,-28.224 -0.762,-0.582 -1.607,0.633 -0.85,1.212 z"
           inkscape:connector-curvature="0" />
        <path
           id="path4600"
           d="m 531,97.285 c 9.589,6.903 22.96,4.728 29.861,-4.863 6.905,-9.588 4.729,-22.959 -4.858,-29.862 -9.587,-6.903 -22.96,-4.728 -29.865,4.86 -6.905,9.591 -4.729,22.96 4.862,29.865 z"
           inkscape:connector-curvature="0"
           style="fill:#9900cc" />
        <path
           id="path4602"
           d="m 530.58,97.892 c 10.259,6.893 23.36,4.739 30.893,-5.044 7.537,-9.789 4.271,-23.722 -5.04,-30.894 -9.787,-7.54 -23.726,-4.265 -30.896,5.042 -7.543,9.788 -4.267,23.726 5.043,30.896 0.758,0.584 1.604,-0.632 0.85,-1.213 -9.149,-7.047 -11.112,-19.263 -4.681,-28.833 6.438,-9.579 19.729,-10.797 28.834,-4.679 9.58,6.437 10.796,19.727 4.677,28.831 -6.438,9.579 -19.723,10.8 -28.83,4.681 -0.794,-0.533 -1.644,0.679 -0.85,1.213 z"
           inkscape:connector-curvature="0" />
        <path
           id="path4604"
           d="m 531.35,104.488 c 2.664,0.701 4.256,3.43 3.555,6.094 -0.701,2.664 -3.43,4.256 -6.094,3.555 l -0.312,-0.082 c -2.664,-0.701 -4.256,-3.43 -3.555,-6.094 0.701,-2.664 3.426,-4.256 6.091,-3.555 l 0.315,0.082 z"
           inkscape:connector-curvature="0"
           style="fill:#ffffff;stroke:#000000;stroke-width:0.4937" />
        <path
           id="path4606"
           d="m 531.834,70.998 c 2.665,0.701 4.257,3.43 3.556,6.094 -0.701,2.665 -3.427,4.256 -6.095,3.555 l -0.311,-0.082 c -2.664,-0.701 -4.256,-3.43 -3.555,-6.092 0.701,-2.667 3.426,-4.258 6.09,-3.557 l 0.315,0.082 z"
           inkscape:connector-curvature="0"
           style="fill:#ffffff;stroke:#000000;stroke-width:0.4937" />
        <path
           id="path4608"
           d="m 574.363,74.221 c -3.854,-9.705 -7.054,-19.636 -10.947,-29.331 -2.813,-7.004 -5.648,-14.785 -11.446,-19.904 -2.374,-2.096 -5.165,1.95 -2.816,4.023 5.268,4.652 7.704,12.707 10.249,19.045 3.752,9.342 6.81,18.922 10.523,28.275 1.168,2.943 5.602,0.825 4.437,-2.108 z"
           inkscape:connector-curvature="0" />
        <path
           id="path4610"
           d="m 601.983,76.388 c 0.166,-3.636 -0.616,-7.199 -1.143,-10.785 -0.713,-4.864 -0.235,-9.903 0.188,-14.772 0.356,-4.102 0.041,-10.219 3.069,-13.388 1.723,-1.802 3.273,-2.946 4.224,-5.327 1.177,-2.951 -3.437,-4.64 -4.607,-1.705 -1.048,2.629 -4.026,4.383 -5.425,6.956 -1.745,3.21 -1.626,7.529 -1.969,11.06 -0.438,4.509 -0.753,8.997 -0.65,13.53 0.105,4.674 1.635,9.311 1.422,13.969 -0.144,3.157 4.746,3.625 4.891,0.462 z"
           inkscape:connector-curvature="0" />
        <path
           id="path4612"
           d="m 544.781,166.18 c 2.382,-8.938 9.809,-15.454 13.834,-23.635 1.536,-3.122 3.432,-17.762 7.803,-17.344 3.158,0.302 3.612,-4.59 0.463,-4.891 -7.688,-0.735 -9.682,10.143 -11.146,15.616 -2.883,10.769 -12.695,17.797 -15.561,28.549 -0.81,3.039 3.791,4.763 4.607,1.705 z"
           inkscape:connector-curvature="0" />
        <path
           id="path4614"
           d="m 590.241,126.044 c -1.132,8.9 3.259,16.951 3.491,25.745 0.128,4.863 -0.731,12.661 4.254,15.538 2.723,1.572 5.563,-2.438 2.816,-4.023 -3.412,-1.97 -2.131,-10.41 -2.28,-13.825 -0.344,-7.876 -4.409,-14.963 -3.391,-22.971 0.401,-3.151 -4.492,-3.595 -4.89,-0.464 z"
           inkscape:connector-curvature="0" />
        <path
           id="path4616"
           d="m 550.34,141.55 c -3.871,5.808 -9.715,1.289 -14.388,-1.107 -2.82,-1.446 -4.484,3.182 -1.705,4.607 7.028,3.604 14.649,7.52 20.116,-0.683 1.757,-2.634 -2.263,-5.456 -4.023,-2.817 z"
           inkscape:connector-curvature="0" />
        <path
           id="path4618"
           d="m 555.745,140.257 c 2.105,6.751 3.842,13.228 9.005,18.363 2.227,2.214 5.998,-0.938 3.746,-3.178 -4.548,-4.523 -6.057,-10.081 -7.913,-16.038 -0.93,-2.98 -5.779,-2.165 -4.838,0.853 z"
           inkscape:connector-curvature="0" />
        <path
           id="path4620"
           d="m 590.09,136.66 c -2.033,4.172 -5.009,7.951 -9.119,10.22 -2.757,1.521 -0.673,5.972 2.107,4.438 5.312,-2.931 8.991,-7.562 11.619,-12.952 1.391,-2.854 -3.234,-4.523 -4.607,-1.706 z"
           inkscape:connector-curvature="0" />
        <path
           id="path4622"
           d="m 594.61,145.73 c 3.32,7.014 8.984,12.925 16.098,16.106 2.9,1.297 4.578,-3.322 1.705,-4.607 -5.935,-2.653 -10.61,-7.787 -13.365,-13.607 -1.354,-2.859 -5.796,-0.76 -4.438,2.108 z"
           inkscape:connector-curvature="0" />
        <path
           id="path4624"
           d="m 566.44,53.609 c -8.405,-3.167 -14.229,-10.681 -23.675,-11.197 -3.159,-0.173 -3.625,4.718 -0.463,4.891 8.669,0.474 14.599,7.961 22.433,10.914 2.971,1.118 4.665,-3.492 1.705,-4.608 z"
           inkscape:connector-curvature="0" />
        <path
           id="path4626"
           d="m 572.189,71.507 c 4.311,-6.909 7.542,-15.854 6.925,-24.083 -0.236,-3.158 -5.07,-2.275 -4.836,0.853 0.51,6.806 -2.562,14.722 -6.112,20.414 -1.671,2.677 2.343,5.508 4.023,2.816 z"
           inkscape:connector-curvature="0" />
        <path
           id="path4628"
           d="m 600.968,62.912 c -2.882,-4.938 -5.826,-9.836 -9.786,-14 -2.172,-2.283 -5.937,0.875 -3.746,3.178 3.677,3.866 6.418,8.345 9.095,12.931 1.582,2.71 6.037,0.632 4.437,-2.109 z"
           inkscape:connector-curvature="0" />
        <path
           id="path4630"
           d="m 602.241,70 c 4.232,-3.674 9.246,-5.892 13.884,-8.944 1.482,-0.975 2.756,-2.361 4.034,-3.577 0.84,-0.798 3.515,-4.128 4.752,-4.098 3.153,0.078 3.628,-4.813 0.463,-4.891 -4.093,-0.101 -7.397,4.324 -10.102,6.854 -4.751,4.445 -11.247,6.602 -16.209,10.909 -2.389,2.075 0.779,5.83 3.178,3.747 z"
           inkscape:connector-curvature="0" />
        <path
           id="path4632"
           d="m 620.913,131.897 c 3.001,1.017 5.968,2.037 8.5,3.993 2.667,2.06 3.334,6.066 3.961,9.134 0.334,1.636 1.971,2.388 3.472,1.792 5.188,-2.058 10.087,-3.327 15.703,-3.051 2.473,0.121 6.891,0.567 9.123,1.882 l 0.981,-4.43 -0.069,-0.067 c -3.154,-0.366 -3.602,4.527 -0.463,4.891 0.476,0.055 0.906,0.086 1.386,0.014 2.02,-0.305 2.854,-3.329 0.981,-4.43 -8.82,-5.193 -20.921,-2.748 -29.75,0.755 1.157,0.598 2.314,1.195 3.472,1.792 -0.787,-3.854 -1.776,-7.575 -4.285,-10.686 -2.71,-3.36 -7.394,-4.87 -11.307,-6.196 -3.001,-1.017 -4.705,3.59 -1.705,4.607 z"
           inkscape:connector-curvature="0" />
        <path
           id="path4634"
           d="m 625.492,77.777 c 6.761,-5.585 13.401,-10.379 17.735,-18.211 l -3.885,0.18 c 5.896,6.332 13.923,8.994 22.375,6.772 3.04,-0.799 2.212,-5.643 -0.854,-4.837 -6.767,1.779 -12.982,0.034 -17.775,-5.113 -0.983,-1.056 -3.08,-1.274 -3.885,0.18 -4.133,7.468 -10.452,11.965 -16.89,17.282 -2.44,2.018 0.733,5.767 3.179,3.747 z"
           inkscape:connector-curvature="0" />
      </g>
    </g>
    <text
       xml:space="preserve"
       style="font-style:normal;font-weight:normal;font-size:118.48911285px;line-height:125%;font-family:sans-serif;letter-spacing:0px;word-spacing:0px;fill:#9900cc;fill-opacity:1;stroke:none;stroke-width:1px;stroke-linecap:butt;stroke-linejoin:miter;stroke-opacity:1"
       x="310.54538"
       y="1006.41"
       id="text5716"
       sodipodi:linespacing="125%"><tspan
         sodipodi:role="line"
         id="tspan5718"
         x="310.54538"
         y="1006.41"
         style="font-style:normal;font-variant:normal;font-weight:bold;font-stretch:normal;font-family:Leelawadee;-inkscape-font-specification:'Leelawadee Bold'">PiMent</tspan></text>
  </g>
</svg>
